<svg width="25" height="24" viewBox="0 0 25 24" fill="none" xmlns="http://www.w3.org/2000/svg">
<path d="M23.3767 18.7979L18.6642 10.2464C18.4024 9.83664 17.8549 9.83664 17.5931 10.2464L16.2365 12.3775C15 9.61538 14 7.40387 13.5 6.15385C13 4.90382 12.9044 5.02817 12.5712 5.00084C12.2574 4.97503 11.9723 5.54167 11.4963 6.63459C11.0203 7.72751 8.73923 12.3775 8.73923 12.3775L7.38259 10.2464C7.12078 9.83664 6.57336 9.83664 6.31155 10.2464L1.62279 18.7979C1.31338 19.2897 1.62279 20 2.17021 20H22.8531C23.3767 20 23.6861 19.2897 23.3767 18.7979Z" fill="#BEBFC2"/>
</svg>
