<svg width="38" height="33" viewBox="0 0 38 33" fill="none" xmlns="http://www.w3.org/2000/svg">
<line x1="0.5" y1="-0.5" x2="4.1876" y2="-0.5" transform="matrix(-0.857187 -0.515005 0.513987 -0.857798 13.0181 7.33069)" stroke="black" stroke-linecap="round"/>
<line x1="0.5" y1="-0.5" x2="2.81792" y2="-0.5" transform="matrix(-0.242228 -0.970219 0.970066 -0.242843 16.2326 5.72128)" stroke="black" stroke-linecap="round"/>
<path d="M24.8131 29.3878C21.0226 29.8327 15.3524 29.9905 13.0308 30.1693C14.2362 29.767 20.1207 28.3297 22.0437 27.9446C24.0527 27.5423 23.6509 26.7375 23.6509 23.1163C30.7106 24.2681 33.3894 28.3811 24.8131 29.3878Z" fill="#0A0B13"/>
<path d="M27.5103 6.04231C27.7094 5.60965 27.5265 5.10024 27.0931 4.89666C26.6609 4.69743 26.152 4.88059 25.9485 5.31453C25.7494 5.74719 25.9323 6.2566 26.3658 6.46019C26.7979 6.65942 27.3068 6.47626 27.5103 6.04231Z" fill="#0A0B13"/>
<path d="M22.6885 9.26116C22.8876 8.82849 22.7047 8.31908 22.2713 8.1155C21.8391 7.91627 21.3302 8.09943 21.1268 8.53337C20.9277 8.96604 21.1105 9.47545 21.544 9.67903C21.9761 9.87826 22.4851 9.6951 22.6885 9.26116Z" fill="#0A0B13"/>
<path d="M25.8508 16.5995C26.1063 16.1975 25.983 15.6658 25.5816 15.4102C25.1801 15.1546 24.6489 15.278 24.3935 15.6799C24.1381 16.0819 24.2613 16.6136 24.6627 16.8692C25.0642 17.1248 25.5954 17.0014 25.8508 16.5995Z" fill="#0A0B13"/>
<path d="M27.608 17.2893C27.3526 17.6913 27.4758 18.223 27.8773 18.4786C28.2788 18.7342 28.81 18.6108 29.0654 18.2089C29.3208 17.8069 29.1976 17.2752 28.7961 17.0196C28.3947 16.764 27.8635 16.8874 27.608 17.2893Z" fill="#0A0B13"/>
<path d="M18.7946 22.9844C19.0421 22.5949 18.9227 22.0795 18.5336 21.8317C18.1445 21.584 17.6296 21.7036 17.382 22.0932C17.1345 22.4828 17.2539 22.9981 17.643 23.2459C18.0321 23.4937 18.547 23.374 18.7946 22.9844Z" fill="#0A0B13"/>
<path d="M31.9012 10.1409C31.5461 10.1193 31.2422 10.4555 31.2154 10.8963C31.1887 11.3372 31.4546 11.7098 31.8041 11.7331C32.1592 11.7547 32.4632 11.4185 32.4899 10.9777C32.5166 10.5368 32.2507 10.1642 31.9012 10.1409Z" fill="#0A0B13"/>
<path d="M16.0298 19.3422C16.4312 19.5978 16.5532 20.1252 16.299 20.5315C16.0436 20.9334 15.5167 21.0556 15.1109 20.8013C14.7095 20.5456 14.5875 20.0183 14.8417 19.612C15.0971 19.2101 15.624 19.0879 16.0298 19.3422Z" fill="#0A0B13"/>
<path d="M9.02977 21.3422C9.43123 21.5978 9.55317 22.1252 9.29902 22.5315C9.04359 22.9334 8.51675 23.0556 8.11094 22.8013C7.70948 22.5456 7.58754 22.0183 7.84169 21.612C8.09712 21.2101 8.62396 21.0879 9.02977 21.3422Z" fill="#0A0B13"/>
<path d="M21.0298 18.3422C21.4312 18.5978 21.5532 19.1252 21.299 19.5315C21.0436 19.9334 20.5167 20.0556 20.1109 19.8013C19.7095 19.5456 19.5875 19.0183 19.8417 18.612C20.0971 18.2101 20.624 18.0879 21.0298 18.3422Z" fill="#0A0B13"/>
<path d="M16.0298 24.8422C16.4312 25.0979 16.5532 25.6252 16.299 26.0315C16.0436 26.4334 15.5167 26.5556 15.1109 26.3013C14.7095 26.0456 14.5875 25.5183 14.8417 25.112C15.0971 24.7101 15.624 24.5879 16.0298 24.8422Z" fill="#0A0B13"/>
<path d="M21.0298 23.8422C21.4312 24.0978 21.5532 24.6252 21.299 25.0315C21.0436 25.4334 20.5167 25.5556 20.1109 25.3013C19.7095 25.0456 19.5875 24.5183 19.8417 24.112C20.0971 23.7101 20.624 23.5879 21.0298 23.8422Z" fill="#0A0B13"/>
<path d="M10.1637 13.1787C10.5182 13.0978 10.8542 13.2592 10.9161 13.5344C10.9781 13.8096 10.7411 14.0972 10.3866 14.1781C10.032 14.2589 9.69611 14.0976 9.63412 13.8224C9.57212 13.5472 9.80913 13.2595 10.1637 13.1787Z" fill="#0A0B13"/>
<path d="M12.6637 14.1787C13.0182 14.0978 13.3542 14.2592 13.4161 14.5344C13.4781 14.8096 13.2411 15.0972 12.8866 15.1781C12.532 15.2589 12.1961 15.0976 12.1341 14.8224C12.0721 14.5472 12.3091 14.2595 12.6637 14.1787Z" fill="#0A0B13"/>
<path d="M6.74083 17.6999C7.13861 17.6165 7.53587 17.8726 7.63025 18.2654C7.72463 18.6582 7.47876 19.0428 7.08099 19.1261C6.68321 19.2095 6.28595 18.9534 6.19157 18.5606C6.09719 18.1678 6.34306 17.7832 6.74083 17.6999Z" fill="#0A0B13"/>
<path d="M15.1637 12.1787C15.5182 12.0978 15.8542 12.2592 15.9161 12.5344C15.9781 12.8096 15.7411 13.0972 15.3866 13.1781C15.032 13.2589 14.6961 13.0976 14.6341 12.8224C14.5721 12.5472 14.8091 12.2595 15.1637 12.1787Z" fill="#0A0B13"/>
<path d="M9.8074 25.1932C10.1919 25.1132 10.5775 25.3663 10.6706 25.7522C10.7637 26.1382 10.5274 26.5146 10.1429 26.5946C9.75833 26.6746 9.37277 26.4216 9.2797 26.0356C9.18662 25.6496 9.42284 25.2732 9.8074 25.1932Z" fill="#0A0B13"/>
<path d="M17.1637 13.1787C17.5182 13.0978 17.8542 13.2592 17.9161 13.5344C17.9781 13.8096 17.7411 14.0972 17.3866 14.1781C17.032 14.2589 16.6961 14.0976 16.6341 13.8224C16.5721 13.5472 16.8091 13.2595 17.1637 13.1787Z" fill="#0A0B13"/>
<mask id="path-21-outside-1_5_616" maskUnits="userSpaceOnUse" x="-1.23344" y="-0.847587" width="40.9092" height="34.8363" fill="black">
<rect fill="white" x="-1.23344" y="-0.847587" width="40.9092" height="34.8363"/>
<path d="M33.6539 9.64487L32.1389 3.36629C32.1389 3.36629 31.9518 2.5694 30.2768 2.66064C30.2051 2.65809 30.1317 2.66553 30.0595 2.67733L20.5055 3.68937C20.0116 3.77811 19.6204 4.16792 19.5341 4.66197L17.5463 11.3726L16.5423 10.8685C16.5423 10.8685 16.5242 10.8549 16.5085 10.85C16.3795 10.765 16.0739 10.5616 15.4106 10.7333L5.94957 12.8822C5.94957 12.8822 5.92782 12.8886 5.91477 12.8924C5.69955 12.9322 4.40439 13.2381 4.46953 15.0507L4.74635 25.6999C4.77596 26.2024 4.99687 26.3266 5.0519 26.353L10.9621 29.2976C10.9621 29.2976 12.1653 30.1738 13.5405 29.7543L23.1021 27.6421C23.1021 27.6421 23.8253 27.642 23.8709 26.8002L23.8613 26.4622C23.8613 26.4622 23.8613 26.4622 23.86 26.4579L23.7846 21.3301L30.4597 20.3021L30.4901 20.2931C32.4782 20.157 32.4958 18.6418 32.4937 18.6188L33.9393 11.1092C34.0009 10.7511 33.7509 10.0011 33.6539 9.64487ZM19.8366 4.7101C19.8943 4.37595 20.142 4.1089 20.4595 4.01532C20.49 4.00635 20.5248 3.99609 20.5565 3.99147L30.1106 2.97943C30.4023 2.9266 30.6903 3.02162 30.8938 3.23145C31.103 3.44435 31.1875 3.73185 31.1313 4.02295L29.7474 10.3428C29.6786 10.7039 29.3888 10.9881 29.0279 11.0471L19.5377 12.2639L17.8271 11.5076L19.7509 5.00108L19.8366 4.7101ZM5.76551 13.4618C5.77954 13.3488 5.85449 13.2179 6.01801 13.1791L15.4833 11.029C16.0192 10.8901 16.2253 11.0281 16.3374 11.104C16.3612 11.1206 16.3837 11.1329 16.4006 11.1421L17.7417 11.812L17.7798 11.8292L19.2521 12.4664L19.6343 12.6567L22.0907 13.9812C22.2415 14.0598 22.2838 14.2036 22.2697 14.3166C22.2557 14.4296 22.1851 14.5592 22.0159 14.5949L12.2568 16.7748C12.1859 16.7909 12.1073 16.781 12.041 16.7484L5.94759 13.7916C5.79375 13.7186 5.75019 13.5705 5.76423 13.4575L5.76551 13.4618ZM11.7784 28.8583C11.5156 29.0256 11.1893 29.0413 10.9128 28.905L5.55067 26.2487C5.25169 26.1001 5.06553 25.8047 5.05722 25.471L4.85191 15.1132C4.84565 14.8026 4.99783 14.5164 5.25626 14.3503C5.51469 14.1842 5.83844 14.1598 6.11924 14.2948L11.5361 16.8641C11.8226 17.0021 12.011 17.2732 12.0372 17.5874C12.0168 17.6786 12.0033 17.7772 12.0041 17.8764L12.1155 22.6433L12.194 28.1015C12.2002 28.4121 12.0437 28.6996 11.7797 28.8626L11.7784 28.8583ZM23.5572 26.4572C23.5681 26.88 23.2765 27.2546 22.8629 27.3434L13.6405 29.403C13.3787 29.4612 13.1097 29.3985 12.9015 29.2373C12.6921 29.0718 12.5674 28.8246 12.5596 28.5571L12.4219 22.624L12.351 17.6416C12.351 17.6416 12.3477 17.6142 12.3482 17.5999C12.4287 17.3111 12.6536 17.0791 12.9494 16.992C12.9712 16.9856 12.9886 16.9804 13.0103 16.974L22.2444 14.9536C22.5061 14.8954 22.7752 14.9581 22.9846 15.1236C23.194 15.2891 23.3187 15.5364 23.3208 15.8008L23.471 21.0675L23.4718 21.1667L23.5529 26.4585L23.5572 26.4572ZM31.3214 19.4707C31.1963 19.7206 30.9665 19.8877 30.6891 19.941L23.7815 21.0139L23.6323 15.799C23.6323 15.799 23.6259 15.7772 23.6277 15.7672L23.6202 15.4523C23.6202 15.4523 23.5519 14.2559 22.6796 13.926L22.2293 13.7131L20.1438 12.5729L29.0826 11.4097C29.4739 11.3417 29.863 11.5395 30.0353 11.9005L31.3275 18.6879C31.4492 18.9408 31.4434 19.2265 31.3183 19.4763L31.3214 19.4707ZM33.6539 11.0229C33.6539 11.0229 33.6521 11.0329 33.6503 11.0429L32.1373 18.9178C32.12 19.0034 32.0491 19.0196 32.0273 19.026C32.0056 19.0324 31.9296 19.0311 31.8922 18.9522L30.2535 11.6137C30.2535 11.6137 30.0112 11.0792 30.1029 10.4747L31.7199 3.85424C31.7337 3.78864 31.7777 3.76147 31.8125 3.75122C31.8212 3.74866 31.8299 3.74609 31.8343 3.74481C31.856 3.7384 31.932 3.73967 31.9694 3.81859L33.5009 9.75108C33.6539 10.2511 33.7196 10.8284 33.6582 11.0216L33.6539 11.0229Z"/>
</mask>
<path d="M33.6539 9.64487L32.1389 3.36629C32.1389 3.36629 31.9518 2.5694 30.2768 2.66064C30.2051 2.65809 30.1317 2.66553 30.0595 2.67733L20.5055 3.68937C20.0116 3.77811 19.6204 4.16792 19.5341 4.66197L17.5463 11.3726L16.5423 10.8685C16.5423 10.8685 16.5242 10.8549 16.5085 10.85C16.3795 10.765 16.0739 10.5616 15.4106 10.7333L5.94957 12.8822C5.94957 12.8822 5.92782 12.8886 5.91477 12.8924C5.69955 12.9322 4.40439 13.2381 4.46953 15.0507L4.74635 25.6999C4.77596 26.2024 4.99687 26.3266 5.0519 26.353L10.9621 29.2976C10.9621 29.2976 12.1653 30.1738 13.5405 29.7543L23.1021 27.6421C23.1021 27.6421 23.8253 27.642 23.8709 26.8002L23.8613 26.4622C23.8613 26.4622 23.8613 26.4622 23.86 26.4579L23.7846 21.3301L30.4597 20.3021L30.4901 20.2931C32.4782 20.157 32.4958 18.6418 32.4937 18.6188L33.9393 11.1092C34.0009 10.7511 33.7509 10.0011 33.6539 9.64487ZM19.8366 4.7101C19.8943 4.37595 20.142 4.1089 20.4595 4.01532C20.49 4.00635 20.5248 3.99609 20.5565 3.99147L30.1106 2.97943C30.4023 2.9266 30.6903 3.02162 30.8938 3.23145C31.103 3.44435 31.1875 3.73185 31.1313 4.02295L29.7474 10.3428C29.6786 10.7039 29.3888 10.9881 29.0279 11.0471L19.5377 12.2639L17.8271 11.5076L19.7509 5.00108L19.8366 4.7101ZM5.76551 13.4618C5.77954 13.3488 5.85449 13.2179 6.01801 13.1791L15.4833 11.029C16.0192 10.8901 16.2253 11.0281 16.3374 11.104C16.3612 11.1206 16.3837 11.1329 16.4006 11.1421L17.7417 11.812L17.7798 11.8292L19.2521 12.4664L19.6343 12.6567L22.0907 13.9812C22.2415 14.0598 22.2838 14.2036 22.2697 14.3166C22.2557 14.4296 22.1851 14.5592 22.0159 14.5949L12.2568 16.7748C12.1859 16.7909 12.1073 16.781 12.041 16.7484L5.94759 13.7916C5.79375 13.7186 5.75019 13.5705 5.76423 13.4575L5.76551 13.4618ZM11.7784 28.8583C11.5156 29.0256 11.1893 29.0413 10.9128 28.905L5.55067 26.2487C5.25169 26.1001 5.06553 25.8047 5.05722 25.471L4.85191 15.1132C4.84565 14.8026 4.99783 14.5164 5.25626 14.3503C5.51469 14.1842 5.83844 14.1598 6.11924 14.2948L11.5361 16.8641C11.8226 17.0021 12.011 17.2732 12.0372 17.5874C12.0168 17.6786 12.0033 17.7772 12.0041 17.8764L12.1155 22.6433L12.194 28.1015C12.2002 28.4121 12.0437 28.6996 11.7797 28.8626L11.7784 28.8583ZM23.5572 26.4572C23.5681 26.88 23.2765 27.2546 22.8629 27.3434L13.6405 29.403C13.3787 29.4612 13.1097 29.3985 12.9015 29.2373C12.6921 29.0718 12.5674 28.8246 12.5596 28.5571L12.4219 22.624L12.351 17.6416C12.351 17.6416 12.3477 17.6142 12.3482 17.5999C12.4287 17.3111 12.6536 17.0791 12.9494 16.992C12.9712 16.9856 12.9886 16.9804 13.0103 16.974L22.2444 14.9536C22.5061 14.8954 22.7752 14.9581 22.9846 15.1236C23.194 15.2891 23.3187 15.5364 23.3208 15.8008L23.471 21.0675L23.4718 21.1667L23.5529 26.4585L23.5572 26.4572ZM31.3214 19.4707C31.1963 19.7206 30.9665 19.8877 30.6891 19.941L23.7815 21.0139L23.6323 15.799C23.6323 15.799 23.6259 15.7772 23.6277 15.7672L23.6202 15.4523C23.6202 15.4523 23.5519 14.2559 22.6796 13.926L22.2293 13.7131L20.1438 12.5729L29.0826 11.4097C29.4739 11.3417 29.863 11.5395 30.0353 11.9005L31.3275 18.6879C31.4492 18.9408 31.4434 19.2265 31.3183 19.4763L31.3214 19.4707ZM33.6539 11.0229C33.6539 11.0229 33.6521 11.0329 33.6503 11.0429L32.1373 18.9178C32.12 19.0034 32.0491 19.0196 32.0273 19.026C32.0056 19.0324 31.9296 19.0311 31.8922 18.9522L30.2535 11.6137C30.2535 11.6137 30.0112 11.0792 30.1029 10.4747L31.7199 3.85424C31.7337 3.78864 31.7777 3.76147 31.8125 3.75122C31.8212 3.74866 31.8299 3.74609 31.8343 3.74481C31.856 3.7384 31.932 3.73967 31.9694 3.81859L33.5009 9.75108C33.6539 10.2511 33.7196 10.8284 33.6582 11.0216L33.6539 11.0229Z" fill="#0A0B13"/>
<path d="M33.6539 9.64487L32.1389 3.36629C32.1389 3.36629 31.9518 2.5694 30.2768 2.66064C30.2051 2.65809 30.1317 2.66553 30.0595 2.67733L20.5055 3.68937C20.0116 3.77811 19.6204 4.16792 19.5341 4.66197L17.5463 11.3726L16.5423 10.8685C16.5423 10.8685 16.5242 10.8549 16.5085 10.85C16.3795 10.765 16.0739 10.5616 15.4106 10.7333L5.94957 12.8822C5.94957 12.8822 5.92782 12.8886 5.91477 12.8924C5.69955 12.9322 4.40439 13.2381 4.46953 15.0507L4.74635 25.6999C4.77596 26.2024 4.99687 26.3266 5.0519 26.353L10.9621 29.2976C10.9621 29.2976 12.1653 30.1738 13.5405 29.7543L23.1021 27.6421C23.1021 27.6421 23.8253 27.642 23.8709 26.8002L23.8613 26.4622C23.8613 26.4622 23.8613 26.4622 23.86 26.4579L23.7846 21.3301L30.4597 20.3021L30.4901 20.2931C32.4782 20.157 32.4958 18.6418 32.4937 18.6188L33.9393 11.1092C34.0009 10.7511 33.7509 10.0011 33.6539 9.64487ZM19.8366 4.7101C19.8943 4.37595 20.142 4.1089 20.4595 4.01532C20.49 4.00635 20.5248 3.99609 20.5565 3.99147L30.1106 2.97943C30.4023 2.9266 30.6903 3.02162 30.8938 3.23145C31.103 3.44435 31.1875 3.73185 31.1313 4.02295L29.7474 10.3428C29.6786 10.7039 29.3888 10.9881 29.0279 11.0471L19.5377 12.2639L17.8271 11.5076L19.7509 5.00108L19.8366 4.7101ZM5.76551 13.4618C5.77954 13.3488 5.85449 13.2179 6.01801 13.1791L15.4833 11.029C16.0192 10.8901 16.2253 11.0281 16.3374 11.104C16.3612 11.1206 16.3837 11.1329 16.4006 11.1421L17.7417 11.812L17.7798 11.8292L19.2521 12.4664L19.6343 12.6567L22.0907 13.9812C22.2415 14.0598 22.2838 14.2036 22.2697 14.3166C22.2557 14.4296 22.1851 14.5592 22.0159 14.5949L12.2568 16.7748C12.1859 16.7909 12.1073 16.781 12.041 16.7484L5.94759 13.7916C5.79375 13.7186 5.75019 13.5705 5.76423 13.4575L5.76551 13.4618ZM11.7784 28.8583C11.5156 29.0256 11.1893 29.0413 10.9128 28.905L5.55067 26.2487C5.25169 26.1001 5.06553 25.8047 5.05722 25.471L4.85191 15.1132C4.84565 14.8026 4.99783 14.5164 5.25626 14.3503C5.51469 14.1842 5.83844 14.1598 6.11924 14.2948L11.5361 16.8641C11.8226 17.0021 12.011 17.2732 12.0372 17.5874C12.0168 17.6786 12.0033 17.7772 12.0041 17.8764L12.1155 22.6433L12.194 28.1015C12.2002 28.4121 12.0437 28.6996 11.7797 28.8626L11.7784 28.8583ZM23.5572 26.4572C23.5681 26.88 23.2765 27.2546 22.8629 27.3434L13.6405 29.403C13.3787 29.4612 13.1097 29.3985 12.9015 29.2373C12.6921 29.0718 12.5674 28.8246 12.5596 28.5571L12.4219 22.624L12.351 17.6416C12.351 17.6416 12.3477 17.6142 12.3482 17.5999C12.4287 17.3111 12.6536 17.0791 12.9494 16.992C12.9712 16.9856 12.9886 16.9804 13.0103 16.974L22.2444 14.9536C22.5061 14.8954 22.7752 14.9581 22.9846 15.1236C23.194 15.2891 23.3187 15.5364 23.3208 15.8008L23.471 21.0675L23.4718 21.1667L23.5529 26.4585L23.5572 26.4572ZM31.3214 19.4707C31.1963 19.7206 30.9665 19.8877 30.6891 19.941L23.7815 21.0139L23.6323 15.799C23.6323 15.799 23.6259 15.7772 23.6277 15.7672L23.6202 15.4523C23.6202 15.4523 23.5519 14.2559 22.6796 13.926L22.2293 13.7131L20.1438 12.5729L29.0826 11.4097C29.4739 11.3417 29.863 11.5395 30.0353 11.9005L31.3275 18.6879C31.4492 18.9408 31.4434 19.2265 31.3183 19.4763L31.3214 19.4707ZM33.6539 11.0229C33.6539 11.0229 33.6521 11.0329 33.6503 11.0429L32.1373 18.9178C32.12 19.0034 32.0491 19.0196 32.0273 19.026C32.0056 19.0324 31.9296 19.0311 31.8922 18.9522L30.2535 11.6137C30.2535 11.6137 30.0112 11.0792 30.1029 10.4747L31.7199 3.85424C31.7337 3.78864 31.7777 3.76147 31.8125 3.75122C31.8212 3.74866 31.8299 3.74609 31.8343 3.74481C31.856 3.7384 31.932 3.73967 31.9694 3.81859L33.5009 9.75108C33.6539 10.2511 33.7196 10.8284 33.6582 11.0216L33.6539 11.0229Z" stroke="#0A0B13" stroke-width="0.804713" mask="url(#path-21-outside-1_5_616)"/>
</svg>
