<svg width="24" height="24" viewBox="0 0 24 24" fill="none" xmlns="http://www.w3.org/2000/svg">
<g clip-path="url(#clip0_190_177)">
<path d="M10.75 2.56699C11.13 2.34757 11.5612 2.23206 12 2.23206C12.4388 2.23206 12.87 2.34757 13.25 2.56699L19.544 6.19999C19.924 6.41941 20.2396 6.73499 20.459 7.11503C20.6785 7.49506 20.794 7.92616 20.794 8.36499V15.633C20.794 16.0718 20.6785 16.5029 20.459 16.883C20.2396 17.263 19.924 17.5786 19.544 17.798L13.25 21.432C12.87 21.6514 12.4388 21.7669 12 21.7669C11.5612 21.7669 11.13 21.6514 10.75 21.432L4.456 17.798C4.07596 17.5786 3.76037 17.263 3.54095 16.883C3.32153 16.5029 3.20601 16.0718 3.206 15.633V8.36599C3.20584 7.92699 3.32127 7.49569 3.5407 7.11546C3.76013 6.73523 4.07581 6.41949 4.456 6.19999L10.75 2.56699ZM12 8.99999C11.2043 8.99999 10.4413 9.31606 9.87868 9.87867C9.31607 10.4413 9 11.2043 9 12C9 12.7956 9.31607 13.5587 9.87868 14.1213C10.4413 14.6839 11.2043 15 12 15C12.7956 15 13.5587 14.6839 14.1213 14.1213C14.6839 13.5587 15 12.7956 15 12C15 11.2043 14.6839 10.4413 14.1213 9.87867C13.5587 9.31606 12.7956 8.99999 12 8.99999Z" fill="#BEBFC2"/>
</g>
<defs>
<clipPath id="clip0_190_177">
<rect width="24" height="24" fill="white"/>
</clipPath>
</defs>
</svg>
