<svg width="24" height="24" viewBox="0 0 24 24" fill="none" xmlns="http://www.w3.org/2000/svg">
<path d="M5.75 8.20429C6.7165 8.20429 7.5 7.41236 7.5 6.43547C7.5 5.45858 6.7165 4.66666 5.75 4.66666C4.7835 4.66666 4 5.45858 4 6.43547C4 7.41236 4.7835 8.20429 5.75 8.20429Z" fill="#2B2B37"/>
<path d="M5.75 14.2688C6.7165 14.2688 7.5 13.4768 7.5 12.5C7.5 11.5231 6.7165 10.7311 5.75 10.7311C4.7835 10.7311 4 11.5231 4 12.5C4 13.4768 4.7835 14.2688 5.75 14.2688Z" fill="#2B2B37"/>
<path d="M5.75 20.3333C6.7165 20.3333 7.5 19.5414 7.5 18.5645C7.5 17.5876 6.7165 16.7957 5.75 16.7957C4.7835 16.7957 4 17.5876 4 18.5645C4 19.5414 4.7835 20.3333 5.75 20.3333Z" fill="#2B2B37"/>
<path d="M19 5H11C10.1716 5 9.5 5.67157 9.5 6.5C9.5 7.32843 10.1716 8 11 8H19C19.8284 8 20.5 7.32843 20.5 6.5C20.5 5.67157 19.8284 5 19 5Z" fill="#2B2B37"/>
<path d="M19 11H11C10.1716 11 9.5 11.6716 9.5 12.5C9.5 13.3284 10.1716 14 11 14H19C19.8284 14 20.5 13.3284 20.5 12.5C20.5 11.6716 19.8284 11 19 11Z" fill="#2B2B37"/>
<path d="M19 17H11C10.1716 17 9.5 17.6716 9.5 18.5C9.5 19.3284 10.1716 20 11 20H19C19.8284 20 20.5 19.3284 20.5 18.5C20.5 17.6716 19.8284 17 19 17Z" fill="#2B2B37"/>
</svg>
